<?xml version="1.0" encoding="UTF-8"?><svg id="a" xmlns="http://www.w3.org/2000/svg" viewBox="0 0 254.78 254.78"><defs><style>.b{fill:#fff;}.c{stroke:#000;stroke-miterlimit:10;stroke-width:6px;}</style></defs><circle class="c" cx="127.39" cy="127.39" r="124.39"/><path class="b" d="M112.09,55.49c1.67,1.34,2.79,5.93,5.44,6.96,2.65,1.03,14.56-2.75,19.38.22,3.24-.49,4.62-5.89,7.01-7.74,4.93-3.8,30.83-12.33,34.84-6.77,1.44,1.99.03,9.18-1.21,9.93-1.59.97-30.14,1.58-28.18,9.44.26,1.04,12.98,10.24,15.81,14.33,2.54,3.67,9.57,22.89,11.8,23.4,8.15-.14,7.39-16.95,9.38-18.21,9.61-6.1,9.38,12.2,4.22,20.15-6.73,10.37-14.73,3.87-11.09,20.68,1.12,5.17,15.33,7.08,20.11,15.02,2.78,4.61,2.33,10.21-4.25,9.42-3.41-.41-12.09-15.47-16.74-8.5-1.13,1.7-2.89,13.22-2.23,15.55.81,2.84,5.91,5.74,7.84,9.01,8.58,14.52-.71,29.42-5.57,18.99-1.97-4.23-1.2-24.5-9.96-13.27-4.7,6.03-6.98,12.74-13.51,18.3-17.31,14.72-42.86,13.11-58.51-3.28-3.01-3.15-11.55-18.08-13.36-18.47-5.97-1.29-4.96,14.28-7.39,17.7-4.77,6.73-8.89-1.93-8.54-8.44.84-15.46,17.76-17.33,9.74-34.89-5.11-11.19-16.16,14.19-22.31,5.6-7.17-10.04,19.11-18.38,20.23-20.13.37-.58,1.99-12.01,1.87-12.76-.36-2.24-15.58-7.2-16.23-21.74-.21-4.59,1.9-12.97,8.23-8.93,1.99,1.27,1.23,18.07,9.38,18.21,2.22-.51,9.25-19.73,11.8-23.4,2.83-4.09,15.55-13.3,15.81-14.33,1.97-7.85-26.61-8.48-28.18-9.44-1.41-.86-3.1-8.86-.33-10.75,5.75-3.9,29.31,3.84,34.68,8.15h.02Z"/><path d="M122.63,103.58v88.84c-26.96-8.35-38.43-39.86-36.85-66.29,1.62-26.95,14.83-20.41,36.85-22.55Z"/><path d="M132.66,103.58c22.02,2.14,35.23-4.4,36.85,22.55,1.59,26.43-9.88,57.94-36.85,66.29v-88.84h0Z"/><path d="M159.4,95.19c-14.75-1.19-29.51-2.26-44.37-1.75-5.61.19-11.33,2.47-16.64,1.79-1.71-.22-3.64.36-2.49-2.52,4.59-11.48,20.16-21.42,32.58-21.11s27.72,10.73,30.92,23.59Z"/></svg>